<svg width="41" height="42" viewBox="0 0 41 42" fill="none" xmlns="http://www.w3.org/2000/svg">
<path d="M20.8105 10.1719C17.2871 10.1719 14.4043 13.0594 14.4043 16.5375C14.4043 20.0156 17.2871 22.9688 20.8105 22.9688C24.334 22.9688 27.2168 20.0812 27.2168 16.6031C27.2168 13.125 24.334 10.1719 20.8105 10.1719ZM20.8105 20.0156C18.8887 20.0156 17.2871 18.5062 17.2871 16.6031C17.2871 14.7 18.8887 13.125 20.8105 13.125C22.7324 13.125 24.334 14.6344 24.334 16.5375C24.334 18.4406 22.7324 20.0156 20.8105 20.0156Z" fill="black"/>
<path d="M20.8107 1.18124C10.1123 1.18124 1.46387 10.0406 1.46387 21C1.46387 31.9594 10.1123 40.8844 20.8107 40.8844C31.5092 40.8844 40.2217 31.9594 40.2217 21C40.2217 10.0406 31.5092 1.18124 20.8107 1.18124ZM12.9951 35.8312V30.45C12.9951 28.35 14.6607 26.6437 16.7107 26.6437H25.0389C27.0889 26.6437 28.7545 28.35 28.7545 30.45V35.8312C26.4482 37.1437 23.7576 37.8656 20.8748 37.8656C17.992 37.9312 15.3014 37.1437 12.9951 35.8312ZM31.5732 33.7969V30.45C31.5732 26.7094 28.6264 23.6906 24.9748 23.6906H16.6467C12.9951 23.6906 10.0482 26.7094 10.0482 30.45V33.7969C6.5248 30.7125 4.28262 26.1187 4.28262 21C4.34668 11.6812 11.7139 4.13437 20.8107 4.13437C29.9076 4.13437 37.3389 11.7469 37.3389 21.0656C37.3389 26.1187 35.0967 30.7125 31.5732 33.7969Z" fill="black"/>
</svg>
