<svg width="24" height="24" viewBox="0 0 24 24" fill="none" xmlns="http://www.w3.org/2000/svg">
<path d="M22.5 3.82502L20.5125 1.83752C19.3875 0.712524 17.5875 0.712524 16.4625 1.83752L5.1375 13.1625C4.7625 13.5375 4.7625 14.175 5.1375 14.5875L5.25 14.7L3.4125 16.5C3.075 16.8375 2.8875 17.2875 2.85 17.7L1.0125 19.5375C0.75 19.8 0.6375 20.175 0.675 20.5125C0.7125 20.85 0.9375 21.1875 1.275 21.3375L4.05 22.8375C4.2375 22.95 4.425 22.9875 4.6125 22.9875C4.9125 22.9875 5.25 22.875 5.475 22.6125L6.6375 21.45C7.05 21.4125 7.5 21.225 7.8 20.8875L9.6375 19.05L9.7125 19.125C9.9 19.3125 10.1625 19.425 10.425 19.425C10.6875 19.425 10.95 19.3125 11.1375 19.125L22.5 7.83752C23.025 7.31252 23.325 6.60002 23.325 5.81252C23.325 5.06252 23.0625 4.35002 22.5 3.82502ZM4.5 21.225L2.7 20.25L3.525 19.425L4.9125 20.8125L4.5 21.225ZM8.4375 17.925L6.6 19.7625C6.4875 19.875 6.3 19.875 6.1875 19.7625L4.575 18.15C4.5 18.0375 4.5 17.9625 4.5 17.925C4.5 17.8875 4.5 17.775 4.575 17.7L6.4125 15.8625L7.425 16.875L8.4375 17.925ZM21.3 6.63752L10.425 17.5125L8.625 15.7125L6.7875 13.875L17.6625 3.00002C18.1125 2.55002 18.8625 2.55002 19.3125 3.00002L21.3 4.98752C21.7875 5.47502 21.7875 6.18752 21.3 6.63752Z" fill="white"/>
</svg>
