<svg width="125" height="21" viewBox="0 0 125 21" fill="none" xmlns="http://www.w3.org/2000/svg">
<path fill-rule="evenodd" clip-rule="evenodd" d="M0 6.42747V0H16.7413C17.4339 0.929275 17.8472 2.10279 17.8472 3.37854C17.8472 4.50778 17.5234 5.55692 16.9687 6.42747H0Z" fill="#54FA80"/>
<path fill-rule="evenodd" clip-rule="evenodd" d="M0 20.6616V9.12146H20.4104C21.8487 10.6638 22.7332 12.7617 22.7332 15.0733C22.7332 17.208 21.9788 19.1606 20.7305 20.6616H0Z" fill="url(#paint0_linear_1_47)"/>
<path d="M35.595 9.18722V20.8259H32.0283V19.2407C31.6668 19.7552 31.1731 20.1723 30.5474 20.4922C29.9356 20.7981 29.2542 20.951 28.5033 20.951C27.6134 20.951 26.8278 20.7564 26.1464 20.367C25.465 19.9638 24.9366 19.3867 24.5612 18.6358C24.1858 17.8849 23.998 17.0019 23.998 15.9869V9.18722H27.5439V15.5071C27.5439 16.2858 27.7455 16.8907 28.1488 17.3218C28.552 17.7528 29.0943 17.9684 29.7757 17.9684C30.4709 17.9684 31.0202 17.7528 31.4234 17.3218C31.8267 16.8907 32.0283 16.2858 32.0283 15.5071V9.18722H35.595Z" fill="url(#paint1_linear_1_47)"/>
<path d="M39.4292 7.97747C38.8035 7.97747 38.289 7.7967 37.8858 7.43517C37.4964 7.05973 37.3017 6.60085 37.3017 6.05855C37.3017 5.50234 37.4964 5.04347 37.8858 4.68194C38.289 4.30649 38.8035 4.11877 39.4292 4.11877C40.0411 4.11877 40.5417 4.30649 40.931 4.68194C41.3343 5.04347 41.5359 5.50234 41.5359 6.05855C41.5359 6.60085 41.3343 7.05973 40.931 7.43517C40.5417 7.7967 40.0411 7.97747 39.4292 7.97747ZM41.2022 9.18722V20.8259H37.6355V9.18722H41.2022Z" fill="url(#paint2_linear_1_47)"/>
<path d="M46.8321 5.3911V20.8259H43.2654V5.3911H46.8321Z" fill="url(#paint3_linear_1_47)"/>
<path d="M48.1863 14.9857C48.1863 13.7898 48.4087 12.74 48.8537 11.8362C49.3126 10.9323 49.9314 10.2371 50.7101 9.75038C51.4887 9.2637 52.3578 9.02036 53.3173 9.02036C54.0821 9.02036 54.7773 9.18027 55.4031 9.50009C56.0427 9.81991 56.5433 10.251 56.9048 10.7933V5.3911H60.4715V20.8259H56.9048V19.1573C56.5711 19.7135 56.0914 20.1584 55.4656 20.4922C54.8538 20.8259 54.1377 20.9927 53.3173 20.9927C52.3578 20.9927 51.4887 20.7494 50.7101 20.2627C49.9314 19.7621 49.3126 19.0599 48.8537 18.1561C48.4087 17.2383 48.1863 16.1815 48.1863 14.9857ZM56.9048 15.0066C56.9048 14.1166 56.6545 13.4144 56.1539 12.8999C55.6673 12.3854 55.0693 12.1282 54.3602 12.1282C53.651 12.1282 53.0461 12.3854 52.5455 12.8999C52.0589 13.4005 51.8155 14.0958 51.8155 14.9857C51.8155 15.8756 52.0589 16.5848 52.5455 17.1132C53.0461 17.6277 53.651 17.8849 54.3602 17.8849C55.0693 17.8849 55.6673 17.6277 56.1539 17.1132C56.6545 16.5987 56.9048 15.8965 56.9048 15.0066Z" fill="url(#paint4_linear_1_47)"/>
<path d="M67.8283 20.9927C66.6881 20.9927 65.6591 20.7494 64.7413 20.2627C63.8375 19.776 63.1214 19.0808 62.593 18.1769C62.0785 17.2731 61.8212 16.2163 61.8212 15.0066C61.8212 13.8107 62.0854 12.7609 62.6138 11.857C63.1422 10.9393 63.8653 10.2371 64.7831 9.75038C65.7008 9.2637 66.7298 9.02036 67.87 9.02036C69.0102 9.02036 70.0392 9.2637 70.957 9.75038C71.8747 10.2371 72.5978 10.9393 73.1262 11.857C73.6546 12.7609 73.9188 13.8107 73.9188 15.0066C73.9188 16.2024 73.6476 17.2592 73.1053 18.1769C72.5769 19.0808 71.8469 19.776 70.9152 20.2627C69.9975 20.7494 68.9685 20.9927 67.8283 20.9927ZM67.8283 17.9058C68.5096 17.9058 69.0867 17.6555 69.5595 17.1549C70.0462 16.6543 70.2895 15.9382 70.2895 15.0066C70.2895 14.0749 70.0531 13.3588 69.5803 12.8582C69.1215 12.3576 68.5514 12.1073 67.87 12.1073C67.1748 12.1073 66.5977 12.3576 66.1388 12.8582C65.6799 13.3449 65.4505 14.061 65.4505 15.0066C65.4505 15.9382 65.673 16.6543 66.118 17.1549C66.5768 17.6555 67.1469 17.9058 67.8283 17.9058Z" fill="url(#paint5_linear_1_47)"/>
<path d="M82.3812 9.06208C83.7439 9.06208 84.8285 9.50704 85.635 10.397C86.4554 11.273 86.8656 12.4828 86.8656 14.0262V20.8259H83.3198V14.506C83.3198 13.7273 83.1182 13.1224 82.7149 12.6913C82.3117 12.2603 81.7693 12.0447 81.088 12.0447C80.4066 12.0447 79.8643 12.2603 79.4611 12.6913C79.0578 13.1224 78.8562 13.7273 78.8562 14.506V20.8259H75.2895V9.18722H78.8562V10.7307C79.2177 10.2162 79.7044 9.81296 80.3163 9.52095C80.9281 9.21503 81.6164 9.06208 82.3812 9.06208Z" fill="url(#paint6_linear_1_47)"/>
<path d="M92.3893 5.3911V20.8259H88.8227V5.3911H92.3893Z" fill="url(#paint7_linear_1_47)"/>
<path d="M96.2464 7.97747C95.6207 7.97747 95.1062 7.7967 94.7029 7.43517C94.3136 7.05973 94.1189 6.60085 94.1189 6.05855C94.1189 5.50234 94.3136 5.04347 94.7029 4.68194C95.1062 4.30649 95.6207 4.11877 96.2464 4.11877C96.8582 4.11877 97.3588 4.30649 97.7482 4.68194C98.1514 5.04347 98.353 5.50234 98.353 6.05855C98.353 6.60085 98.1514 7.05973 97.7482 7.43517C97.3588 7.7967 96.8582 7.97747 96.2464 7.97747ZM98.0193 9.18722V20.8259H94.4526V9.18722H98.0193Z" fill="url(#paint8_linear_1_47)"/>
<path d="M107.174 9.06208C108.537 9.06208 109.622 9.50704 110.428 10.397C111.248 11.273 111.659 12.4828 111.659 14.0262V20.8259H108.113V14.506C108.113 13.7273 107.911 13.1224 107.508 12.6913C107.105 12.2603 106.562 12.0447 105.881 12.0447C105.2 12.0447 104.657 12.2603 104.254 12.6913C103.851 13.1224 103.649 13.7273 103.649 14.506V20.8259H100.083V9.18722H103.649V10.7307C104.011 10.2162 104.498 9.81296 105.109 9.52095C105.721 9.21503 106.409 9.06208 107.174 9.06208Z" fill="url(#paint9_linear_1_47)"/>
<path d="M124.587 14.8188C124.587 15.1526 124.566 15.5002 124.524 15.8617H116.452C116.508 16.5848 116.737 17.141 117.141 17.5303C117.558 17.9058 118.065 18.0935 118.663 18.0935C119.553 18.0935 120.172 17.7181 120.52 16.9672H124.316C124.121 17.732 123.767 18.4203 123.252 19.0321C122.751 19.6439 122.119 20.1237 121.354 20.4713C120.589 20.8189 119.734 20.9927 118.788 20.9927C117.648 20.9927 116.633 20.7494 115.743 20.2627C114.853 19.776 114.158 19.0808 113.657 18.1769C113.157 17.2731 112.907 16.2163 112.907 15.0066C112.907 13.7968 113.15 12.74 113.637 11.8362C114.137 10.9323 114.832 10.2371 115.722 9.75038C116.612 9.2637 117.634 9.02036 118.788 9.02036C119.915 9.02036 120.916 9.25675 121.792 9.72953C122.668 10.2023 123.349 10.8767 123.836 11.7527C124.337 12.6288 124.587 13.6508 124.587 14.8188ZM120.937 13.8802C120.937 13.2684 120.728 12.7817 120.311 12.4202C119.894 12.0586 119.372 11.8779 118.747 11.8779C118.149 11.8779 117.641 12.0517 117.224 12.3993C116.821 12.747 116.571 13.2406 116.473 13.8802H120.937Z" fill="url(#paint10_linear_1_47)"/>
<defs>
<linearGradient id="paint0_linear_1_47" x1="9.82535" y1="18.5838" x2="14.164" y2="2.28153" gradientUnits="userSpaceOnUse">
<stop stop-color="#3A3A3A"/>
<stop offset="1"/>
</linearGradient>
<linearGradient id="paint1_linear_1_47" x1="67.4728" y1="17.9545" x2="69.7005" y2="-7.37502" gradientUnits="userSpaceOnUse">
<stop stop-color="#3A3A3A"/>
<stop offset="1"/>
</linearGradient>
<linearGradient id="paint2_linear_1_47" x1="67.4728" y1="17.9545" x2="69.7005" y2="-7.37502" gradientUnits="userSpaceOnUse">
<stop stop-color="#3A3A3A"/>
<stop offset="1"/>
</linearGradient>
<linearGradient id="paint3_linear_1_47" x1="67.4728" y1="17.9545" x2="69.7005" y2="-7.37502" gradientUnits="userSpaceOnUse">
<stop stop-color="#3A3A3A"/>
<stop offset="1"/>
</linearGradient>
<linearGradient id="paint4_linear_1_47" x1="67.4728" y1="17.9545" x2="69.7005" y2="-7.37502" gradientUnits="userSpaceOnUse">
<stop stop-color="#3A3A3A"/>
<stop offset="1"/>
</linearGradient>
<linearGradient id="paint5_linear_1_47" x1="67.4728" y1="17.9545" x2="69.7005" y2="-7.37502" gradientUnits="userSpaceOnUse">
<stop stop-color="#3A3A3A"/>
<stop offset="1"/>
</linearGradient>
<linearGradient id="paint6_linear_1_47" x1="67.4728" y1="17.9545" x2="69.7005" y2="-7.37502" gradientUnits="userSpaceOnUse">
<stop stop-color="#3A3A3A"/>
<stop offset="1"/>
</linearGradient>
<linearGradient id="paint7_linear_1_47" x1="67.4728" y1="17.9545" x2="69.7005" y2="-7.37502" gradientUnits="userSpaceOnUse">
<stop stop-color="#3A3A3A"/>
<stop offset="1"/>
</linearGradient>
<linearGradient id="paint8_linear_1_47" x1="67.4728" y1="17.9545" x2="69.7005" y2="-7.37502" gradientUnits="userSpaceOnUse">
<stop stop-color="#3A3A3A"/>
<stop offset="1"/>
</linearGradient>
<linearGradient id="paint9_linear_1_47" x1="67.4728" y1="17.9545" x2="69.7005" y2="-7.37502" gradientUnits="userSpaceOnUse">
<stop stop-color="#3A3A3A"/>
<stop offset="1"/>
</linearGradient>
<linearGradient id="paint10_linear_1_47" x1="67.4728" y1="17.9545" x2="69.7005" y2="-7.37502" gradientUnits="userSpaceOnUse">
<stop stop-color="#3A3A3A"/>
<stop offset="1"/>
</linearGradient>
</defs>
</svg>
